<svg width="250px" xmlns="http://www.w3.org/2000/svg" id="Layer_1" data-name="Layer 1" viewBox="170.69 170.71 747.75 356.21">
	<defs>
		<style>
			.cls-1 {
				fill: currentColor;
			}
		</style>
	</defs>
	<path class="cls-1" d="M209.41,377.36c-5.44-5.28-8.51-12.54-8.51-20.12V222.33c0-15.82,5.36-21.43,20.47-21.43,17.08,0,20.12,5.3,20.12,20.22v18.87c0,9.76,5.22,15.18,14.93,15.18s15.26-5.41,15.26-14.78v-19.27c0-41.66-16.38-50.41-50.32-50.41s-50.66,19.3-50.66,51.62v134.91c0,15.74,6.37,30.82,17.67,41.78l47.08,45.71c3.86,3.75,6.03,8.89,6.03,14.27v17.5c0,14.98-7.58,20.22-20.3,20.22s-20.29-3.71-20.29-20.33v-27.4c0-10.28-6.2-15.18-15.1-15.18s-15.1,5.41-15.1,14.78v27.8c0,32.12,17.42,50.53,50.48,50.53s50.49-18.39,50.49-50.41v-23.12c0-9.94-4.03-19.47-11.16-26.39l-51.11-49.62Z"></path>
	<path class="cls-1" d="M571.65,268.84c-33.37,0-40.91,20.38-40.91,43.25v49.89c0,8.5,3.5,16.77,9.59,22.69l40.88,40.25c2.16,2.12,3.37,5.03,3.37,8.05v21.27c0,10.43-1.57,12.87-11.82,12.87s-11.82-2.87-11.82-12.87v-19.73c0-7.2-4.88-13.75-11.95-15.18-9.71-1.96-18.25,5.41-18.25,14.78v20.46c0,8.58,0,42.73,40.22,42.73,43.81,0,43.81-32.68,43.81-43.06v-26c0-8.5-3.5-16.77-9.59-22.69l-40.87-40.25c-2.16-2.12-3.37-5.03-3.37-8.05v-45.16c0-6.57,2.31-13.07,11.82-13.07s11.82,6.44,11.82,13.16v16.66c0,7.2,4.88,13.75,11.95,15.18,9.71,1.96,18.25-5.41,18.25-14.78v-17.12c0-23.04-9.75-43.28-43.12-43.28Z"></path>
	<path class="cls-1" d="M341.62,216.71c-37.74,0-50.24,25.36-50.24,50.94v4.09c-8.44-3.65-12.21-3.69-19.91-3.69-29.57,0-50.32,17.55-50.32,50.94v26.26c0,30.5,11.5,50.24,50.34,50.24,10.43,0,15.89-2.4,19.89-4.17v54.42c0,25.9,9.67,51.6,50.33,51.6s50.15-25.85,50.15-51.44v-179.44c0-24.89-12.5-49.73-50.24-49.73Zm-70.16,150.31c-17.63,0-20.12-11.47-20.12-21.78v-26.26c0-10.63,4.06-21.25,20.05-21.25s19.99,11.26,19.99,20.18v27.34c-.36,10.28-2.28,21.78-19.91,21.78Zm90.21,78.86c0,9.22-1.79,21.04-20.05,21.04s-20.06-11.81-20.05-21.2v-178.08c0-9.64,3.62-21.25,20.05-21.25s20.05,10.09,20.05,20.05v179.44Z"></path>
	<path class="cls-1" d="M748.55,367.64c-8.34,0-15.1,6.76-15.1,15.1v72.42c0,8.32-2.08,11.97-9.72,11.97s-9.72-3.81-9.72-11.97v-166.83c0-8.34-6.76-15.1-15.1-15.1s-15.1,6.76-15.1,15.1v166.83c0,27.49,7.02,42.16,39.91,42.16s39.91-14.67,39.91-42.16v-72.42c0-8.34-6.76-15.1-15.1-15.1Z"></path>
	<path class="cls-1" d="M454.46,173.73h-29.37c-8.34,0-15.22,6.89-15.22,15.22V511.49c0,8.5,6.92,15.42,15.42,15.42h34.82c34.74,0,49.96-17.61,49.96-52.35v-163.19c0-12.69-5.12-25.86-14.33-36.02,9.16-7.87,14.33-19.2,14.33-32.97v-29c0-26.31-15.16-39.65-55.62-39.65Zm-14.4,30.19h17.93c18.67,0,21.9,8.87,21.9,13.77v24.69c0,4.11-4.84,15.02-22.15,15.02h-17.67v-53.48Zm39.83,270.64c0,15.74-4.87,22.16-19.77,22.16h-20.05s.08-179.57,.13-209.13h20.32c14.5,0,19.37,10.13,19.37,23.78v163.19Z"></path>
	<path class="cls-1" d="M699.02,247.15c8.34,0,15.1-6.76,15.1-15.1s-6.76-15.1-15.1-15.1h-153.19c-8.34,0-15.1,6.76-15.1,15.1s6.76,15.1,15.1,15.1h86.02v235.07c0,8.34,6.76,15.1,15.1,15.1s15.1-6.76,15.1-15.1V247.15h36.98Z"></path>
	<path class="cls-1" d="M798.57,368.23c-8.34,0-15.1,6.76-15.1,15.1v98.9c0,8.34,6.76,15.1,15.1,15.1s15.1-6.76,15.1-15.1v-98.9c0-8.34-6.76-15.1-15.1-15.1Z"></path>
	<path class="cls-1" d="M875.77,216.96c-40.27,0-42.67,21.99-42.67,44.77v190.81c0,22.53,2.4,44.77,42.67,44.77s42.67-21.99,42.67-44.77v-190.81c0-22.53-2.4-44.77-42.67-44.77Zm12.48,235.58c0,7.02-1.89,13.83-12.48,13.83s-12.48-6.95-12.48-13.83v-190.81c0-7.02,1.89-13.83,12.48-13.83s12.48,6.95,12.48,13.83v190.81Z"></path>
	<path class="cls-1" d="M766.94,216.96l-19.76-.02c-13.5,.96-13.6,14.43-13.63,23.47v88.8c.03,9.05,.13,22.51,13.63,23.47l19.76-.02c21.32,0,46.72-8.11,46.72-46.72v-42.26c0-38.61-25.41-46.72-46.72-46.72Zm16.53,88.98c0,12.28-1.48,16.55-19.75,16.55v-75.36c18.28,0,19.75,4.27,19.75,16.55v42.26Z"></path>
</svg>

